<svg xmlns="http://www.w3.org/2000/svg" xmlns:xlink="http://www.w3.org/1999/xlink" width="55.303" height="55.019" viewBox="0 0 55.303 55.019"><defs><style>.a{fill:#c7bead;}.b{filter:url(#a);}</style><filter id="a" x="0" y="0" width="55.303" height="55.019" filterUnits="userSpaceOnUse"><feOffset input="SourceAlpha"/><feGaussianBlur stdDeviation="1.5" result="b"/><feFlood flood-opacity="0.161"/><feComposite operator="in" in2="b"/><feComposite in="SourceGraphic"/></filter></defs><g class="b" transform="matrix(1, 0, 0, 1, 0, 0)"><path class="a" d="M2,25.151a23.162,23.162,0,0,0,19.532,22.87V31.841H15.661V25.151h5.88V20.058a8.167,8.167,0,0,1,8.735-9.029,35.745,35.745,0,0,1,5.186.463v5.693H32.535A3.347,3.347,0,0,0,28.766,20.8v4.348h6.415l-1.026,6.693H28.766V48.021A23.151,23.151,0,1,0,2,25.151Z" transform="translate(2.5 2.5)"/></g></svg>