<svg xmlns="http://www.w3.org/2000/svg" width="829" height="1347.125" viewBox="0 0 829 1347.125"><defs><style>.a{fill:#aeaeae;fill-rule:evenodd;opacity:0.1;}</style></defs><path class="a" d="M386.458,1172.012l-207.25,177.613V753.643C74.616,678.342,6.5,555.581,6.5,417,6.5,188.265,192.265,2.5,421,2.5S835.5,188.265,835.5,417c0,138.581-68.116,261.342-172.708,336.643v595.982l-207.25-177.613V935.125H386.458ZM421,119.942l93.47,175.2,195.644,34.611L572.223,472.681,599.65,669.292,421,582.455,242.351,669.292l27.426-196.611L131.886,329.748,327.53,295.137Zm-48.289,237.37-101,17.893,71.156,73.712L328.7,550.538l92.3-44.9,92.3,44.9L499.133,448.917,570.289,375.2l-101-17.893L421,266.744Z" transform="translate(-6.5 -2.5)"/></svg>