<svg xmlns="http://www.w3.org/2000/svg" xmlns:xlink="http://www.w3.org/1999/xlink" width="55" height="55" viewBox="0 0 55 55"><defs><style>.a{fill:#c7bead;}.b{filter:url(#a);}</style><filter id="a" x="0" y="0" width="55" height="55" filterUnits="userSpaceOnUse"><feOffset input="SourceAlpha"/><feGaussianBlur stdDeviation="1.5" result="b"/><feFlood flood-opacity="0.161"/><feComposite operator="in" in2="b"/><feComposite in="SourceGraphic"/></filter></defs><g class="b" transform="matrix(1, 0, 0, 1, 0, 0)"><path class="a" d="M23,0A23,23,0,1,0,46,23,23,23,0,0,0,23,0ZM34.539,17.6v3.114a10.867,10.867,0,0,1-6.65-2.26l.022,9.586A8.03,8.03,0,0,1,25.5,33.752a8.2,8.2,0,0,1-4.579,2.29,8.441,8.441,0,0,1-1.237.091,8.224,8.224,0,0,1-5.041-1.7,8.363,8.363,0,0,1-.775-.677,8.059,8.059,0,0,1-.364-11.113,8.224,8.224,0,0,1,6.18-2.764,8.441,8.441,0,0,1,1.237.091v4.355A3.877,3.877,0,1,0,23.59,28l.005-6.419V9.867h4.289a6.639,6.639,0,0,0,6.643,6.577s.013,0,.012,0V17.6Z" transform="translate(4.5 4.5)"/></g></svg>